REM DIRINDEX 1\5,1\2\7,1\2\8,1\3\9,1\3\10,1\4\11,1\4\12,1\6\13,1\6\14
REM DIRNAME folder01,folder02,folder03,folder04,folder05,folder06,folder07,folder08,folder09,folder10,folder11,folder12,folder13,folder14
TITLE ""
FILE "Disk1Track01.mp3" MP3
  TRACK 01 AUDIO
    TITLE "7:cjc067_0001"
    INDEX 01 00:00:00
  TRACK 02 AUDIO
    TITLE "7:cjc067_0002"
    INDEX 01 00:02:63
  TRACK 03 AUDIO
    TITLE "8:cjc067_0003"
    INDEX 01 00:04:56
  TRACK 04 AUDIO
    TITLE "8:cjc067_0004"
    INDEX 01 00:06:06
  TRACK 05 AUDIO
    TITLE "8:cjc067_0005"
    INDEX 01 00:07:25
  TRACK 06 AUDIO
    TITLE "8:cjc067_0006"
    INDEX 01 00:08:58
  TRACK 07 AUDIO
    TITLE "0:"
    INDEX 01 00:10:04
  TRACK 08 AUDIO
    TITLE "8:cjc067_0007"
    INDEX 01 00:11:01
  TRACK 09 AUDIO
    TITLE "8:cjc067_0008"
    INDEX 01 00:12:16
  TRACK 10 AUDIO
    TITLE "8:cjc067_0009"
    INDEX 01 00:13:37
  TRACK 11 AUDIO
    TITLE "8:cjc067_0010"
    INDEX 01 00:14:70
  TRACK 12 AUDIO
    TITLE "0:"
    INDEX 01 00:16:10
  TRACK 13 AUDIO
    TITLE "8:cjc067_0011"
    INDEX 01 00:17:08
  TRACK 14 AUDIO
    TITLE "8:cjc067_0012"
    INDEX 01 00:18:29
  TRACK 15 AUDIO
    TITLE "8:cjc067_0013"
    INDEX 01 00:19:54
  TRACK 16 AUDIO
    TITLE "8:cjc067_0014"
    INDEX 01 00:21:15
  TRACK 17 AUDIO
    TITLE "0:"
    INDEX 01 00:22:32
  TRACK 18 AUDIO
    TITLE "8:cjc067_0015"
    INDEX 01 00:23:32
  TRACK 19 AUDIO
    TITLE "8:cjc067_0016"
    INDEX 01 00:24:65
  TRACK 20 AUDIO
    TITLE "8:cjc067_0017"
    INDEX 01 00:26:07
  TRACK 21 AUDIO
    TITLE "8:cjc067_0018"
    INDEX 01 00:27:39
  TRACK 22 AUDIO
    TITLE "0:"
    INDEX 01 00:28:53
  TRACK 23 AUDIO
    TITLE "8:cjc067_0019"
    INDEX 01 00:29:52
  TRACK 24 AUDIO
    TITLE "8:cjc067_0020"
    INDEX 01 00:31:14
  TRACK 25 AUDIO
    TITLE "8:cjc067_0021"
    INDEX 01 00:32:47
  TRACK 26 AUDIO
    TITLE "8:cjc067_0022"
    INDEX 01 00:33:64
  TRACK 27 AUDIO
    TITLE "0:"
    INDEX 01 00:35:15
  TRACK 28 AUDIO
    TITLE "8:cjc067_0023"
    INDEX 01 00:36:23
  TRACK 29 AUDIO
    TITLE "8:cjc067_0024"
    INDEX 01 00:37:50
  TRACK 30 AUDIO
    TITLE "8:cjc067_0025"
    INDEX 01 00:39:15
  TRACK 31 AUDIO
    TITLE "8:cjc067_0026"
    INDEX 01 00:40:54
  TRACK 32 AUDIO
    TITLE "0:"
    INDEX 01 00:41:73
  TRACK 33 AUDIO
    TITLE "8:cjc067_0027"
    INDEX 01 00:43:05
  TRACK 34 AUDIO
    TITLE "8:cjc067_0028"
    INDEX 01 00:44:38
  TRACK 35 AUDIO
    TITLE "8:cjc067_0029"
    INDEX 01 00:45:67
  TRACK 36 AUDIO
    TITLE "8:cjc067_0030"
    INDEX 01 00:47:28
  TRACK 37 AUDIO
    TITLE "0:"
    INDEX 01 00:48:48
  TRACK 38 AUDIO
    TITLE "8:cjc067_0031"
    INDEX 01 00:49:43
  TRACK 39 AUDIO
    TITLE "8:cjc067_0032"
    INDEX 01 00:51:03
  TRACK 40 AUDIO
    TITLE "8:cjc067_0033"
    INDEX 01 00:52:36
  TRACK 41 AUDIO
    TITLE "8:cjc067_0034"
    INDEX 01 00:53:58
  TRACK 42 AUDIO
    TITLE "0:"
    INDEX 01 00:54:70
  TRACK 43 AUDIO
    TITLE "8:cjc067_0035"
    INDEX 01 00:55:73
  TRACK 44 AUDIO
    TITLE "8:cjc067_0036"
    INDEX 01 00:57:37
  TRACK 45 AUDIO
    TITLE "8:cjc067_0037"
    INDEX 01 00:58:66
  TRACK 46 AUDIO
    TITLE "8:cjc067_0038"
    INDEX 01 01:00:23
  TRACK 47 AUDIO
    TITLE "0:"
    INDEX 01 01:01:33
  TRACK 48 AUDIO
    TITLE "8:cjc067_0039"
    INDEX 01 01:02:26
  TRACK 49 AUDIO
    TITLE "8:cjc067_0040"
    INDEX 01 01:03:55
  TRACK 50 AUDIO
    TITLE "8:cjc067_0041"
    INDEX 01 01:05:11
  TRACK 51 AUDIO
    TITLE "8:cjc067_0042"
    INDEX 01 01:06:42
  TRACK 52 AUDIO
    TITLE "0:"
    INDEX 01 01:07:74
  TRACK 53 AUDIO
    TITLE "8:cjc067_0043"
    INDEX 01 01:09:05
  TRACK 54 AUDIO
    TITLE "8:cjc067_0044"
    INDEX 01 01:10:31
  TRACK 55 AUDIO
    TITLE "8:cjc067_0045"
    INDEX 01 01:11:68
  TRACK 56 AUDIO
    TITLE "8:cjc067_0046"
    INDEX 01 01:13:30
  TRACK 57 AUDIO
    TITLE "0:"
    INDEX 01 01:14:61
  TRACK 58 AUDIO
    TITLE "8:cjc067_0047"
    INDEX 01 01:15:66
  TRACK 59 AUDIO
    TITLE "8:cjc067_0048"
    INDEX 01 01:17:24
  TRACK 60 AUDIO
    TITLE "8:cjc067_0049"
    INDEX 01 01:18:54
  TRACK 61 AUDIO
    TITLE "8:cjc067_0050"
    INDEX 01 01:20:10
  TRACK 62 AUDIO
    TITLE "0:"
    INDEX 01 01:21:31
